<svg width="542" height="249" viewBox="0 0 542 249" fill="none" xmlns="http://www.w3.org/2000/svg"><path d="M412.56 215.428l3.528.972c-4.5 13.14-12.744 20.52-25.884 24.588-.36-.828-1.404-2.412-2.088-3.204 12.78-3.456 20.556-10.224 24.444-22.356zm-15.3.18c3.924 10.908 12.132 18.972 24.732 21.996-.792.756-1.8 2.232-2.34 3.168-13.032-3.528-20.988-11.988-25.56-24.192l3.168-.972zm-8.568-1.764h32.724v3.348h-32.724v-3.348zm13.356-5.436l3.6-1.08c1.008 1.692 2.196 4.032 2.664 5.508l-3.816 1.224c-.396-1.476-1.44-3.888-2.448-5.652zM354.312 213.988h29.34v17.424h-3.563v-14.076h-22.357v14.256h-3.42v-17.604zm1.8 12.132h25.992v3.348h-25.992v-3.348zm10.98-18.504h3.601v33.408h-3.601v-33.408zM328.339 248.152v-40.5h2.808v40.5h-2.808zM290.96 238.504c-6.624 0-11.772-4.968-11.772-13.68 0-8.64 5.292-13.788 11.988-13.788 3.312 0 5.868 1.584 7.488 3.312l-2.232 2.7c-1.368-1.404-3.025-2.376-5.185-2.376-4.572 0-7.739 3.816-7.739 10.008 0 6.3 2.951 10.152 7.631 10.152 2.412 0 4.284-1.08 5.832-2.808l2.269 2.628c-2.124 2.484-4.824 3.852-8.28 3.852zM265.18 238v-22.968h-7.776v-3.528h19.764v3.528h-7.776V238h-4.212zM227.788 238v-26.496H232v12.528h.072l10.08-12.528h4.68l-8.208 10.224 9.54 16.272h-4.608l-7.488-12.96-4.068 5.004V238h-4.212zM213.322 238.504c-3.564 0-6.048-1.476-7.704-4.392l2.952-2.16c1.08 2.052 2.556 2.88 4.284 2.88 2.628 0 3.96-1.44 3.96-5.292v-18.036h4.212V229.9c0 4.752-2.304 8.604-7.704 8.604zM195.651 238.504c-6.624 0-11.772-4.968-11.772-13.68 0-8.64 5.292-13.788 11.988-13.788 3.312 0 5.868 1.584 7.488 3.312l-2.232 2.7c-1.368-1.404-3.024-2.376-5.184-2.376-4.572 0-7.74 3.816-7.74 10.008 0 6.3 2.952 10.152 7.632 10.152 2.412 0 4.284-1.08 5.832-2.808l2.268 2.628c-2.124 2.484-4.824 3.852-8.28 3.852zM164.976 238.504c-2.736 0-5.544-1.152-7.452-2.736l1.944-2.7c1.764 1.368 3.456 2.268 5.616 2.268 2.34 0 3.456-1.152 3.456-2.664 0-1.764-2.232-2.592-4.356-3.384-2.664-1.008-5.58-2.412-5.58-5.796 0-3.312 2.664-5.796 7.092-5.796 2.628 0 4.824 1.08 6.408 2.34l-1.944 2.556c-1.368-.972-2.772-1.728-4.392-1.728-2.196 0-3.204 1.08-3.204 2.448 0 1.692 1.908 2.34 4.104 3.132 2.772 1.044 5.796 2.304 5.796 6.012 0 3.348-2.628 6.048-7.488 6.048zM137.111 238v-19.8h3.384l.36 2.772h.108c1.8-1.8 3.852-3.276 6.552-3.276 4.212 0 6.084 2.844 6.084 7.848V238h-4.176v-11.916c0-3.456-1.008-4.788-3.312-4.788-1.836 0-3.096.936-4.824 2.664V238h-4.176zM121.085 238.504c-3.384 0-5.796-2.268-5.796-5.76 0-4.248 3.6-6.444 11.808-7.344-.036-2.304-.864-4.32-3.744-4.32-2.088 0-4.068.972-5.724 2.052l-1.548-2.844c2.016-1.26 4.824-2.592 7.992-2.592 4.932 0 7.2 3.132 7.2 8.424V238h-3.42l-.324-2.232h-.144c-1.8 1.548-3.924 2.736-6.3 2.736zm1.296-3.312c1.728 0 3.096-.792 4.716-2.304v-4.824c-5.868.684-7.812 2.16-7.812 4.392 0 1.944 1.332 2.736 3.096 2.736zM102.458 238.504c-3.672 0-7.02-1.44-9.432-3.888l2.448-2.916c1.872 1.908 4.5 3.132 7.056 3.132 3.168 0 4.968-1.476 4.968-3.744 0-2.412-1.8-3.168-4.248-4.212l-3.672-1.62c-2.556-1.044-5.364-3.06-5.364-6.912 0-4.176 3.636-7.308 8.676-7.308 3.132 0 6.048 1.296 8.028 3.348l-2.16 2.628c-1.656-1.44-3.528-2.34-5.868-2.34-2.7 0-4.428 1.296-4.428 3.384 0 2.268 2.124 3.132 4.284 4.032l3.636 1.512c3.132 1.332 5.4 3.276 5.4 7.164 0 4.248-3.528 7.74-9.324 7.74zM72.224 238.504c-4.932 0-9.324-3.816-9.324-10.368 0-6.624 4.392-10.44 9.324-10.44 4.896 0 9.324 3.816 9.324 10.44 0 6.552-4.428 10.368-9.324 10.368zm0-3.42c3.096 0 5.076-2.772 5.076-6.948 0-4.212-1.98-6.984-5.076-6.984-3.132 0-5.04 2.772-5.04 6.984 0 4.176 1.908 6.948 5.04 6.948zM57.393 238.504c-4.428 0-6.012-2.808-6.012-6.948v-10.044h-2.88v-3.096l3.096-.216.468-5.472h3.456v5.472h5.184v3.312h-5.184v10.08c0 2.34.864 3.6 2.916 3.6.684 0 1.512-.252 2.124-.504l.756 3.06c-1.116.36-2.448.756-3.924.756zM37.49 238.504c-4.932 0-9.324-3.816-9.324-10.368 0-6.624 4.392-10.44 9.324-10.44 4.896 0 9.324 3.816 9.324 10.44 0 6.552-4.428 10.368-9.324 10.368zm0-3.42c3.096 0 5.076-2.772 5.076-6.948 0-4.212-1.98-6.984-5.076-6.984-3.132 0-5.04 2.772-5.04 6.984 0 4.176 1.908 6.948 5.04 6.948zM3.456 238v-26.496H7.74l8.82 15.588 2.772 5.58h.18c-.252-2.7-.576-5.94-.576-8.784v-12.384h3.996V238h-4.32l-8.748-15.588-2.772-5.58h-.18c.18 2.772.54 5.796.54 8.712V238H3.456zM172.502 162.6c-19 0-32.4-12.4-32.4-31.8 0-23.6 20-35.8 65.8-40.8-.2-12.8-4.8-24-21-24-11.6 0-22.4 5.2-31.8 11.2l-8.6-15.6c11.4-7.2 26.8-14.4 44.4-14.4 27.4 0 40 17.4 40 46.6V160h-18.8l-2-12.6h-.6c-10 8.6-21.8 15.2-35 15.2zm7-18.2c9.6 0 17.4-4.6 26.4-12.8v-27c-32.6 4-43.6 12.2-43.6 24.6 0 10.8 7.4 15.2 17.2 15.2zM41.6 99.8h40.2L76 80c-5-16-9.4-32.4-14-49h-.8C57 47.8 52.4 64 47.6 80l-6 19.8zM99.8 160l-12.4-42H36.2l-12.6 42H0L48.8 12.8h26.8L124.4 160H99.8z" fill="#222"/><path opacity=".35" d="M494.133 162.8c-10 0-20.8-5.2-30-14.6h-.6l-2.6 11.8h-23V.4h29.2v40.2l-.6 18c8.8-8 20-13.4 31-13.4 27.6 0 44.2 22.6 44.2 56.8 0 38.6-23 60.8-47.6 60.8zm-6.6-24.2c13.6 0 24-11.6 24-36 0-21.4-6.8-33.2-22.2-33.2-7.6 0-14.4 3.8-22.2 11.6v49.2c7 6.2 14.4 8.4 20.4 8.4zM304.2 160V12h49c30.4 0 53.6 8.8 53.6 36.4 0 13.6-7.6 27.6-20.2 32v1c16 3.8 27.8 15 27.8 35 0 29.8-24.8 43.6-57.4 43.6h-52.8zm29.6-87.8H351c18.8 0 27-7.6 27-19.4 0-13-8.8-18.2-26.6-18.2h-17.6v37.6zm0 65h20.6c20.2 0 31.2-7.2 31.2-22.6 0-14.4-10.8-20.4-31.2-20.4h-20.6v43z" fill="#DDD"/></svg>