<svg width="70" height="71" viewBox="0 0 70 71" fill="none" xmlns="http://www.w3.org/2000/svg">
<g clip-path="url(#clip0_1243_3173)">
<path d="M34.1022 35.6806H32.0007V33.5801H34.1022V35.6806ZM29.8992 35.6806H27.7977V33.5801H29.8992V35.6806ZM25.6962 35.6806H23.5947V33.5801H25.6962V35.6806Z" fill="#B69460"/>
<path d="M61.2163 55.5105C61.2163 53.193 59.3308 51.3075 57.0133 51.3075C56.1478 51.3075 55.3425 51.5705 54.6732 52.0207C54.096 50.3879 52.5368 49.2147 50.7088 49.2147C49.8454 49.2147 49.0421 49.4764 48.3736 49.9246C47.8006 48.2843 46.2377 47.1044 44.4043 47.1044C43.6394 47.1044 42.9214 47.3099 42.3028 47.6684V40.8087C42.3028 38.4912 40.4174 36.6057 38.0999 36.6057C35.7823 36.6057 33.8969 38.4912 33.8969 40.8087V53.4073L31.802 53.4482C29.4895 53.4541 27.6099 55.3373 27.6099 57.6491L27.6015 61.8323H12.6018C11.6361 61.8323 10.8505 61.0468 10.8505 60.0811V12.4473H8.74902V60.0811C8.74902 62.2056 10.4773 63.9338 12.6018 63.9338H27.5973L27.5918 66.6873L29.8734 70.8979L31.721 69.8967L29.6945 66.1566L29.7114 57.6515C29.7114 56.4927 30.6541 55.55 31.8129 55.55L33.8969 55.5094V64.9673H35.9984V55.4685V40.8087C35.9984 39.65 36.9411 38.7072 38.0999 38.7072C39.2586 38.7072 40.2014 39.65 40.2014 40.8087V51.3075V58.6716H42.3028V51.3075C42.3028 50.1487 43.2456 49.206 44.4043 49.206C45.5631 49.206 46.5058 50.1487 46.5058 51.3075V58.6716H48.6073V53.4178C48.6073 52.2591 49.5501 51.3163 50.7088 51.3163C51.8676 51.3163 52.8103 52.2591 52.8103 53.4178V55.5106V58.6717H54.9118V55.5106C54.9118 54.3519 55.8545 53.4091 57.0133 53.4091C58.1721 53.4091 59.1148 54.3519 59.1148 55.5131L59.1498 70.4L61.2513 70.3951L61.2163 55.5105Z" fill="#B69460"/>
<path d="M10.8505 4.75117C10.8505 3.78547 11.6361 2.99993 12.6018 2.99993H18.9763V5.17147C18.9763 7.29594 20.7046 9.02421 22.829 9.02421H34.326C36.4503 9.02421 38.1787 7.29594 38.1787 5.17147V2.99993H44.8248C45.7905 2.99993 46.576 3.78547 46.576 4.75117V46.0718H48.6775V4.75117C48.6775 2.6267 46.9491 0.898438 44.8248 0.898438H38.1786H18.9763H12.6018C10.4773 0.898438 8.74902 2.6267 8.74902 4.75117V10.3552H10.8505V4.75117ZM36.0771 2.99993V5.17147C36.0771 6.13718 35.2916 6.92272 34.3259 6.92272H22.8289C21.8632 6.92272 21.0776 6.13718 21.0776 5.17147V2.99993H36.0771Z" fill="#B69460"/>
<path d="M41.9522 29.1428V27.0414H40.5022C39.9988 21.3274 35.4349 16.7637 29.7206 16.2604V15.0156H27.6191V16.2604C21.9048 16.7637 17.341 21.3274 16.8376 27.0414H15.4209V29.1428H16.7884H40.5512H41.9522ZM18.9459 27.0414C19.4716 22.1411 23.632 18.3126 28.6698 18.3126C33.7077 18.3126 37.8681 22.1411 38.3937 27.0414H18.9459Z" fill="#B69460"/>
<path d="M16.1221 40.8184H26.612V42.9189H16.1221V40.8184Z" fill="#B69460"/>
<path d="M16.1221 45.0205H26.612V47.121H16.1221V45.0205Z" fill="#B69460"/>
<path d="M16.1221 49.2246H26.612V51.3251H16.1221V49.2246Z" fill="#B69460"/>
</g>
<defs>
<clipPath id="clip0_1243_3173">
<rect width="70" height="70" fill="white" transform="translate(0 0.898438)"/>
</clipPath>
</defs>
</svg>
