<svg width="16" height="18" viewBox="0 0 16 18" fill="none" xmlns="http://www.w3.org/2000/svg">
<path d="M15.7654 8.03095C15.6911 8.10068 15.6029 8.156 15.5058 8.19374C15.4086 8.23148 15.3046 8.25091 15.1994 8.25091C15.0943 8.25091 14.9902 8.23148 14.8931 8.19374C14.796 8.156 14.7078 8.10068 14.6335 8.03095L8.79985 2.56082V17.25C8.79985 17.4489 8.71557 17.6397 8.56556 17.7803C8.41554 17.921 8.21207 18 7.99991 18C7.78775 18 7.58428 17.921 7.43426 17.7803C7.28424 17.6397 7.19996 17.4489 7.19996 17.25V2.56082L1.36635 8.03095C1.21625 8.17168 1.01267 8.25074 0.800391 8.25074C0.588114 8.25074 0.384532 8.17168 0.234429 8.03095C0.0843266 7.89023 1.58159e-09 7.69936 0 7.50034C-1.58159e-09 7.30133 0.0843266 7.11046 0.234429 6.96974L7.43395 0.219958C7.50824 0.150228 7.59646 0.0949103 7.69358 0.0571683C7.79069 0.0194264 7.89478 0 7.99991 0C8.10503 0 8.20913 0.0194264 8.30624 0.0571683C8.40335 0.0949103 8.49158 0.150228 8.56587 0.219958L15.7654 6.96974C15.8398 7.03939 15.8988 7.1221 15.939 7.21315C15.9793 7.30419 16 7.40179 16 7.50034C16 7.5989 15.9793 7.69649 15.939 7.78754C15.8988 7.87859 15.8398 7.9613 15.7654 8.03095Z" fill="#E0AA40"/>
</svg>
