<svg width="36" height="36" viewBox="0 0 36 36" fill="none" xmlns="http://www.w3.org/2000/svg">
<path fill-rule="evenodd" clip-rule="evenodd" d="M35.1875 18.2534C35.1875 17.0493 34.2256 16.0732 33.0391 16.0732L2.96094 16.0732C1.77439 16.0732 0.8125 17.0493 0.8125 18.2533C0.8125 19.4574 1.77439 20.4335 2.96094 20.4335L33.0391 20.4335C34.2256 20.4335 35.1875 19.4574 35.1875 18.2534Z" fill="#222222"/>
<path fill-rule="evenodd" clip-rule="evenodd" d="M16.4809 1.45097C15.6418 2.30232 15.6418 3.68269 16.4808 4.53411L30.0008 18.2547L16.4808 31.9753C15.6418 32.8268 15.6418 34.2071 16.4809 35.0585C17.3199 35.9098 18.6803 35.9098 19.5192 35.0583L34.5583 19.7962C35.3972 18.9449 35.3972 17.5646 34.5583 16.7132L19.5192 1.45111C18.6803 0.599682 17.3199 0.599622 16.4809 1.45097Z" fill="#222222"/>
</svg>
